<mxfile host="app.diagrams.net" modified="2024-05-25T11:03:28.370Z" agent="Mozilla/5.0 (Windows NT 10.0; Win64; x64) AppleWebKit/537.36 (KHTML, like Gecko) Chrome/125.0.0.0 Safari/537.36" etag="lqxNgBw5Z9VTkd8GVLF7" version="24.4.6" type="device">
  <diagram name="Page-1" id="j1HLwgxfQrOsrOZzmXNq">
    <mxGraphModel dx="2400" dy="521" grid="0" gridSize="10" guides="1" tooltips="1" connect="1" arrows="1" fold="1" page="0" pageScale="1" pageWidth="850" pageHeight="1100" math="0" shadow="0">
      <root>
        <mxCell id="0" />
        <mxCell id="1" parent="0" />
        <mxCell id="PoJHdd7sWmHCCq4l5TB8-23" value="" style="rounded=0;whiteSpace=wrap;html=1;labelBackgroundColor=none;fillColor=none;" vertex="1" parent="1">
          <mxGeometry x="-493" y="419" width="286" height="946" as="geometry" />
        </mxCell>
        <mxCell id="PoJHdd7sWmHCCq4l5TB8-1" value="User" style="shape=umlActor;verticalLabelPosition=bottom;verticalAlign=top;html=1;" vertex="1" parent="1">
          <mxGeometry x="-792" y="821" width="30" height="60" as="geometry" />
        </mxCell>
        <mxCell id="PoJHdd7sWmHCCq4l5TB8-4" value="Amazon&amp;nbsp;&lt;div&gt;company&lt;/div&gt;" style="shape=umlActor;verticalLabelPosition=bottom;verticalAlign=top;html=1;" vertex="1" parent="1">
          <mxGeometry x="-14" y="934" width="30" height="59" as="geometry" />
        </mxCell>
        <mxCell id="PoJHdd7sWmHCCq4l5TB8-5" value="Seller" style="shape=umlActor;verticalLabelPosition=bottom;verticalAlign=top;html=1;" vertex="1" parent="1">
          <mxGeometry x="-26" y="680" width="30" height="60" as="geometry" />
        </mxCell>
        <mxCell id="PoJHdd7sWmHCCq4l5TB8-8" value="Login / Signup / Logout" style="ellipse;whiteSpace=wrap;html=1;" vertex="1" parent="1">
          <mxGeometry x="-410" y="434" width="105" height="75" as="geometry" />
        </mxCell>
        <mxCell id="PoJHdd7sWmHCCq4l5TB8-10" value="" style="endArrow=none;html=1;rounded=0;fontSize=12;startSize=8;endSize=8;curved=1;exitX=1;exitY=0.3333333333333333;exitDx=0;exitDy=0;exitPerimeter=0;entryX=0;entryY=0.5;entryDx=0;entryDy=0;" edge="1" parent="1" source="PoJHdd7sWmHCCq4l5TB8-1" target="PoJHdd7sWmHCCq4l5TB8-8">
          <mxGeometry width="50" height="50" relative="1" as="geometry">
            <mxPoint x="-553" y="634" as="sourcePoint" />
            <mxPoint x="-503" y="584" as="targetPoint" />
          </mxGeometry>
        </mxCell>
        <mxCell id="PoJHdd7sWmHCCq4l5TB8-11" value="" style="endArrow=none;html=1;rounded=0;fontSize=12;startSize=8;endSize=8;curved=1;entryX=0.995;entryY=0.599;entryDx=0;entryDy=0;entryPerimeter=0;exitX=0;exitY=0.3333333333333333;exitDx=0;exitDy=0;exitPerimeter=0;" edge="1" parent="1" source="PoJHdd7sWmHCCq4l5TB8-5" target="PoJHdd7sWmHCCq4l5TB8-8">
          <mxGeometry width="50" height="50" relative="1" as="geometry">
            <mxPoint x="-280" y="661" as="sourcePoint" />
            <mxPoint x="-230" y="611" as="targetPoint" />
          </mxGeometry>
        </mxCell>
        <mxCell id="PoJHdd7sWmHCCq4l5TB8-12" value="Search items" style="ellipse;whiteSpace=wrap;html=1;" vertex="1" parent="1">
          <mxGeometry x="-410" y="518" width="96" height="64" as="geometry" />
        </mxCell>
        <mxCell id="PoJHdd7sWmHCCq4l5TB8-13" value="" style="endArrow=none;html=1;rounded=0;fontSize=12;startSize=8;endSize=8;curved=1;exitX=1;exitY=0.3333333333333333;exitDx=0;exitDy=0;exitPerimeter=0;entryX=0;entryY=0.5;entryDx=0;entryDy=0;" edge="1" parent="1" source="PoJHdd7sWmHCCq4l5TB8-1" target="PoJHdd7sWmHCCq4l5TB8-12">
          <mxGeometry width="50" height="50" relative="1" as="geometry">
            <mxPoint x="-556" y="659" as="sourcePoint" />
            <mxPoint x="-506" y="609" as="targetPoint" />
          </mxGeometry>
        </mxCell>
        <mxCell id="PoJHdd7sWmHCCq4l5TB8-14" value="View Item&amp;nbsp;&lt;div&gt;details&lt;/div&gt;" style="ellipse;whiteSpace=wrap;html=1;" vertex="1" parent="1">
          <mxGeometry x="-410" y="636" width="99" height="68" as="geometry" />
        </mxCell>
        <mxCell id="PoJHdd7sWmHCCq4l5TB8-15" value="" style="endArrow=none;html=1;rounded=0;fontSize=12;startSize=8;endSize=8;curved=1;entryX=0;entryY=0.5;entryDx=0;entryDy=0;exitX=1;exitY=1;exitDx=0;exitDy=0;exitPerimeter=0;" edge="1" parent="1" source="PoJHdd7sWmHCCq4l5TB8-1" target="PoJHdd7sWmHCCq4l5TB8-14">
          <mxGeometry width="50" height="50" relative="1" as="geometry">
            <mxPoint x="-749" y="832" as="sourcePoint" />
            <mxPoint x="-491" y="625" as="targetPoint" />
          </mxGeometry>
        </mxCell>
        <mxCell id="PoJHdd7sWmHCCq4l5TB8-17" value="&amp;lt;&amp;lt;Extends&amp;gt;&amp;gt;" style="endArrow=block;endSize=16;endFill=0;html=1;rounded=0;fontSize=12;curved=1;exitX=0.5;exitY=1;exitDx=0;exitDy=0;" edge="1" parent="1" source="PoJHdd7sWmHCCq4l5TB8-12" target="PoJHdd7sWmHCCq4l5TB8-14">
          <mxGeometry x="-0.2594" y="-1" width="160" relative="1" as="geometry">
            <mxPoint x="-391" y="734" as="sourcePoint" />
            <mxPoint x="-231" y="734" as="targetPoint" />
            <mxPoint as="offset" />
          </mxGeometry>
        </mxCell>
        <mxCell id="PoJHdd7sWmHCCq4l5TB8-18" value="Add / Remove Items to cart" style="ellipse;whiteSpace=wrap;html=1;" vertex="1" parent="1">
          <mxGeometry x="-413" y="716" width="114" height="74" as="geometry" />
        </mxCell>
        <mxCell id="PoJHdd7sWmHCCq4l5TB8-19" value="" style="endArrow=none;html=1;rounded=0;fontSize=12;startSize=8;endSize=8;curved=1;exitX=1;exitY=0.3333333333333333;exitDx=0;exitDy=0;exitPerimeter=0;entryX=0;entryY=0.5;entryDx=0;entryDy=0;" edge="1" parent="1" source="PoJHdd7sWmHCCq4l5TB8-1" target="PoJHdd7sWmHCCq4l5TB8-18">
          <mxGeometry width="50" height="50" relative="1" as="geometry">
            <mxPoint x="-526" y="780" as="sourcePoint" />
            <mxPoint x="-476" y="730" as="targetPoint" />
          </mxGeometry>
        </mxCell>
        <mxCell id="PoJHdd7sWmHCCq4l5TB8-20" value="Purchase Item" style="ellipse;whiteSpace=wrap;html=1;" vertex="1" parent="1">
          <mxGeometry x="-419" y="805" width="120" height="80" as="geometry" />
        </mxCell>
        <mxCell id="PoJHdd7sWmHCCq4l5TB8-21" value="" style="endArrow=none;html=1;rounded=0;fontSize=12;startSize=8;endSize=8;curved=1;exitX=1;exitY=0.3333333333333333;exitDx=0;exitDy=0;exitPerimeter=0;entryX=0;entryY=0.5;entryDx=0;entryDy=0;" edge="1" parent="1" source="PoJHdd7sWmHCCq4l5TB8-1" target="PoJHdd7sWmHCCq4l5TB8-20">
          <mxGeometry width="50" height="50" relative="1" as="geometry">
            <mxPoint x="-540" y="837" as="sourcePoint" />
            <mxPoint x="-490" y="787" as="targetPoint" />
          </mxGeometry>
        </mxCell>
        <mxCell id="PoJHdd7sWmHCCq4l5TB8-24" value="&amp;lt;&amp;lt;Include&amp;gt;&amp;gt;" style="endArrow=block;endSize=16;endFill=0;html=1;rounded=0;fontSize=12;curved=1;exitX=0.453;exitY=0.973;exitDx=0;exitDy=0;exitPerimeter=0;" edge="1" parent="1" source="PoJHdd7sWmHCCq4l5TB8-20" target="PoJHdd7sWmHCCq4l5TB8-25">
          <mxGeometry x="-0.2179" y="-1" width="160" relative="1" as="geometry">
            <mxPoint x="-416" y="949" as="sourcePoint" />
            <mxPoint x="-256" y="949" as="targetPoint" />
            <mxPoint as="offset" />
          </mxGeometry>
        </mxCell>
        <mxCell id="PoJHdd7sWmHCCq4l5TB8-25" value="Payment" style="ellipse;whiteSpace=wrap;html=1;" vertex="1" parent="1">
          <mxGeometry x="-422" y="949" width="120" height="80" as="geometry" />
        </mxCell>
        <mxCell id="PoJHdd7sWmHCCq4l5TB8-26" value="" style="endArrow=none;html=1;rounded=0;fontSize=12;startSize=8;endSize=8;curved=1;exitX=1;exitY=0;exitDx=0;exitDy=0;entryX=0;entryY=1;entryDx=0;entryDy=0;entryPerimeter=0;" edge="1" parent="1" source="PoJHdd7sWmHCCq4l5TB8-25" target="PoJHdd7sWmHCCq4l5TB8-5">
          <mxGeometry width="50" height="50" relative="1" as="geometry">
            <mxPoint x="-231" y="930" as="sourcePoint" />
            <mxPoint x="-181" y="880" as="targetPoint" />
          </mxGeometry>
        </mxCell>
        <mxCell id="PoJHdd7sWmHCCq4l5TB8-28" value="" style="endArrow=none;html=1;rounded=0;fontSize=12;startSize=8;endSize=8;curved=1;exitX=1;exitY=0;exitDx=0;exitDy=0;entryX=0;entryY=1;entryDx=0;entryDy=0;entryPerimeter=0;" edge="1" parent="1" source="PoJHdd7sWmHCCq4l5TB8-25" target="PoJHdd7sWmHCCq4l5TB8-4">
          <mxGeometry width="50" height="50" relative="1" as="geometry">
            <mxPoint x="-234" y="826" as="sourcePoint" />
            <mxPoint x="-184" y="776" as="targetPoint" />
          </mxGeometry>
        </mxCell>
        <mxCell id="PoJHdd7sWmHCCq4l5TB8-32" value="Deliver Products" style="ellipse;whiteSpace=wrap;html=1;" vertex="1" parent="1">
          <mxGeometry x="-419" y="1052" width="120" height="80" as="geometry" />
        </mxCell>
        <mxCell id="PoJHdd7sWmHCCq4l5TB8-33" value="" style="endArrow=none;html=1;rounded=0;fontSize=12;startSize=8;endSize=8;curved=1;exitX=1;exitY=0.5;exitDx=0;exitDy=0;entryX=0;entryY=1;entryDx=0;entryDy=0;entryPerimeter=0;" edge="1" parent="1" source="PoJHdd7sWmHCCq4l5TB8-32" target="PoJHdd7sWmHCCq4l5TB8-5">
          <mxGeometry width="50" height="50" relative="1" as="geometry">
            <mxPoint x="-224" y="1090" as="sourcePoint" />
            <mxPoint x="3" y="926" as="targetPoint" />
          </mxGeometry>
        </mxCell>
        <mxCell id="PoJHdd7sWmHCCq4l5TB8-34" value="Add / Update / Delete Items" style="ellipse;whiteSpace=wrap;html=1;" vertex="1" parent="1">
          <mxGeometry x="-417" y="1155" width="131" height="85" as="geometry" />
        </mxCell>
        <mxCell id="PoJHdd7sWmHCCq4l5TB8-35" value="" style="endArrow=none;html=1;rounded=0;fontSize=12;startSize=8;endSize=8;curved=1;exitX=1;exitY=0.588;exitDx=0;exitDy=0;exitPerimeter=0;entryX=0;entryY=1;entryDx=0;entryDy=0;entryPerimeter=0;" edge="1" parent="1" source="PoJHdd7sWmHCCq4l5TB8-34" target="PoJHdd7sWmHCCq4l5TB8-5">
          <mxGeometry width="50" height="50" relative="1" as="geometry">
            <mxPoint x="-232" y="1168" as="sourcePoint" />
            <mxPoint x="-182" y="1118" as="targetPoint" />
          </mxGeometry>
        </mxCell>
        <mxCell id="PoJHdd7sWmHCCq4l5TB8-36" value="" style="endArrow=none;html=1;rounded=0;fontSize=12;startSize=8;endSize=8;curved=1;entryX=0;entryY=1;entryDx=0;entryDy=0;entryPerimeter=0;exitX=1;exitY=0;exitDx=0;exitDy=0;" edge="1" parent="1" source="PoJHdd7sWmHCCq4l5TB8-34" target="PoJHdd7sWmHCCq4l5TB8-4">
          <mxGeometry width="50" height="50" relative="1" as="geometry">
            <mxPoint x="-296" y="1160" as="sourcePoint" />
            <mxPoint x="6" y="1110" as="targetPoint" />
          </mxGeometry>
        </mxCell>
        <mxCell id="PoJHdd7sWmHCCq4l5TB8-37" value="Add / Update / Remove&amp;nbsp; website&lt;div&gt;Features&amp;nbsp;&lt;/div&gt;" style="ellipse;whiteSpace=wrap;html=1;" vertex="1" parent="1">
          <mxGeometry x="-411" y="1258" width="120" height="80" as="geometry" />
        </mxCell>
        <mxCell id="PoJHdd7sWmHCCq4l5TB8-38" value="" style="endArrow=none;html=1;rounded=0;fontSize=12;startSize=8;endSize=8;curved=1;exitX=1;exitY=0;exitDx=0;exitDy=0;entryX=1;entryY=1;entryDx=0;entryDy=0;entryPerimeter=0;" edge="1" parent="1" source="PoJHdd7sWmHCCq4l5TB8-37" target="PoJHdd7sWmHCCq4l5TB8-4">
          <mxGeometry width="50" height="50" relative="1" as="geometry">
            <mxPoint x="-210" y="1251" as="sourcePoint" />
            <mxPoint x="-160" y="1201" as="targetPoint" />
          </mxGeometry>
        </mxCell>
      </root>
    </mxGraphModel>
  </diagram>
</mxfile>
